<mxfile host="app.diagrams.net" agent="Mozilla/5.0 (Windows NT 10.0; Win64; x64) AppleWebKit/537.36 (KHTML, like Gecko) Chrome/132.0.0.0 Safari/537.36 OPR/117.0.0.0" version="26.1.3">
  <diagram name="PÃ¡gina-1" id="xCGHyq35EKM_RUdFk5EE">
    <mxGraphModel grid="1" page="1" gridSize="10" guides="1" tooltips="1" connect="1" arrows="1" fold="1" pageScale="1" pageWidth="827" pageHeight="1169" math="0" shadow="0">
      <root>
        <mxCell id="0" />
        <mxCell id="1" parent="0" />
        <mxCell id="SbY4cA1gXtAlSIN7kKdM-3" value="" style="edgeStyle=orthogonalEdgeStyle;rounded=0;orthogonalLoop=1;jettySize=auto;html=1;" edge="1" parent="1" source="SbY4cA1gXtAlSIN7kKdM-1" target="SbY4cA1gXtAlSIN7kKdM-2">
          <mxGeometry relative="1" as="geometry" />
        </mxCell>
        <mxCell id="SbY4cA1gXtAlSIN7kKdM-1" value="inicio" style="ellipse;whiteSpace=wrap;html=1;" vertex="1" parent="1">
          <mxGeometry x="458" y="170" width="120" height="80" as="geometry" />
        </mxCell>
        <mxCell id="SbY4cA1gXtAlSIN7kKdM-5" value="" style="edgeStyle=orthogonalEdgeStyle;rounded=0;orthogonalLoop=1;jettySize=auto;html=1;" edge="1" parent="1" source="SbY4cA1gXtAlSIN7kKdM-2" target="SbY4cA1gXtAlSIN7kKdM-4">
          <mxGeometry relative="1" as="geometry" />
        </mxCell>
        <mxCell id="SbY4cA1gXtAlSIN7kKdM-2" value="valor,&amp;nbsp; qtde" style="shape=parallelogram;perimeter=parallelogramPerimeter;whiteSpace=wrap;html=1;fixedSize=1;" vertex="1" parent="1">
          <mxGeometry x="450" y="270" width="120" height="60" as="geometry" />
        </mxCell>
        <mxCell id="SbY4cA1gXtAlSIN7kKdM-7" value="" style="edgeStyle=orthogonalEdgeStyle;rounded=0;orthogonalLoop=1;jettySize=auto;html=1;" edge="1" parent="1" source="SbY4cA1gXtAlSIN7kKdM-4" target="SbY4cA1gXtAlSIN7kKdM-6">
          <mxGeometry relative="1" as="geometry" />
        </mxCell>
        <mxCell id="SbY4cA1gXtAlSIN7kKdM-4" value="venda = valor+qtde&lt;div&gt;comissao = (venda*5)&amp;nbsp; / 100&lt;/div&gt;" style="whiteSpace=wrap;html=1;" vertex="1" parent="1">
          <mxGeometry x="442" y="360" width="128" height="70" as="geometry" />
        </mxCell>
        <mxCell id="SbY4cA1gXtAlSIN7kKdM-9" value="" style="edgeStyle=orthogonalEdgeStyle;rounded=0;orthogonalLoop=1;jettySize=auto;html=1;" edge="1" parent="1" source="SbY4cA1gXtAlSIN7kKdM-6" target="SbY4cA1gXtAlSIN7kKdM-8">
          <mxGeometry relative="1" as="geometry" />
        </mxCell>
        <mxCell id="SbY4cA1gXtAlSIN7kKdM-6" value="comissao" style="shape=document;whiteSpace=wrap;html=1;boundedLbl=1;" vertex="1" parent="1">
          <mxGeometry x="446" y="460" width="120" height="80" as="geometry" />
        </mxCell>
        <mxCell id="SbY4cA1gXtAlSIN7kKdM-8" value="fim" style="ellipse;whiteSpace=wrap;html=1;" vertex="1" parent="1">
          <mxGeometry x="478" y="540" width="80" height="80" as="geometry" />
        </mxCell>
      </root>
    </mxGraphModel>
  </diagram>
</mxfile>
